<mxfile host="app.diagrams.net" modified="2024-03-27T12:49:36.914Z" agent="Mozilla/5.0 (Windows NT 10.0; Win64; x64) AppleWebKit/537.36 (KHTML, like Gecko) Chrome/123.0.0.0 Safari/537.36" etag="014hc1N0f_N1dJG4xte0" version="24.0.7" type="github">
  <diagram name="第 1 页" id="FPUiUYU5uiOXFjw7oEHq">
    <mxGraphModel dx="1219" dy="732" grid="1" gridSize="10" guides="1" tooltips="1" connect="1" arrows="1" fold="1" page="1" pageScale="1" pageWidth="2336" pageHeight="1654" math="0" shadow="0">
      <root>
        <mxCell id="0" />
        <mxCell id="1" parent="0" />
        <mxCell id="AzjC7UTh_NYAufaMbPv8-12" style="edgeStyle=orthogonalEdgeStyle;rounded=0;orthogonalLoop=1;jettySize=auto;html=1;exitX=1;exitY=0.25;exitDx=0;exitDy=0;entryX=0;entryY=0.25;entryDx=0;entryDy=0;" edge="1" parent="1" source="AzjC7UTh_NYAufaMbPv8-13" target="AzjC7UTh_NYAufaMbPv8-16">
          <mxGeometry relative="1" as="geometry" />
        </mxCell>
        <mxCell id="AzjC7UTh_NYAufaMbPv8-13" value="App Classloader" style="rounded=0;whiteSpace=wrap;html=1;" vertex="1" parent="1">
          <mxGeometry x="190" y="190" width="120" height="60" as="geometry" />
        </mxCell>
        <mxCell id="AzjC7UTh_NYAufaMbPv8-14" style="edgeStyle=orthogonalEdgeStyle;rounded=0;orthogonalLoop=1;jettySize=auto;html=1;exitX=1;exitY=0.25;exitDx=0;exitDy=0;entryX=0;entryY=0.25;entryDx=0;entryDy=0;" edge="1" parent="1" source="AzjC7UTh_NYAufaMbPv8-16" target="AzjC7UTh_NYAufaMbPv8-18">
          <mxGeometry relative="1" as="geometry" />
        </mxCell>
        <mxCell id="AzjC7UTh_NYAufaMbPv8-15" style="edgeStyle=orthogonalEdgeStyle;rounded=0;orthogonalLoop=1;jettySize=auto;html=1;exitX=0;exitY=0.75;exitDx=0;exitDy=0;entryX=1;entryY=0.75;entryDx=0;entryDy=0;" edge="1" parent="1" source="AzjC7UTh_NYAufaMbPv8-16" target="AzjC7UTh_NYAufaMbPv8-13">
          <mxGeometry relative="1" as="geometry" />
        </mxCell>
        <mxCell id="AzjC7UTh_NYAufaMbPv8-16" value="Extension Classloader" style="rounded=0;whiteSpace=wrap;html=1;" vertex="1" parent="1">
          <mxGeometry x="560" y="190" width="140" height="60" as="geometry" />
        </mxCell>
        <mxCell id="AzjC7UTh_NYAufaMbPv8-17" style="edgeStyle=orthogonalEdgeStyle;rounded=0;orthogonalLoop=1;jettySize=auto;html=1;exitX=0;exitY=0.75;exitDx=0;exitDy=0;entryX=1;entryY=0.75;entryDx=0;entryDy=0;" edge="1" parent="1" source="AzjC7UTh_NYAufaMbPv8-18" target="AzjC7UTh_NYAufaMbPv8-16">
          <mxGeometry relative="1" as="geometry" />
        </mxCell>
        <mxCell id="AzjC7UTh_NYAufaMbPv8-18" value="Bootstrap Classloader" style="rounded=0;whiteSpace=wrap;html=1;" vertex="1" parent="1">
          <mxGeometry x="960" y="190" width="140" height="60" as="geometry" />
        </mxCell>
        <mxCell id="AzjC7UTh_NYAufaMbPv8-19" value="交给&lt;span style=&quot;text-wrap: wrap;&quot;&gt;Extension Classloader尝试加载&lt;/span&gt;" style="text;html=1;resizable=1;points=[];autosize=1;strokeColor=none;fillColor=none;w=2000;fixedWidth=0;imageVerticalAlign=middle;align=left;verticalAlign=middle;labelPosition=center;verticalLabelPosition=middle;horizontal=1;imageAspect=1;overflow=width;" vertex="1" parent="1">
          <mxGeometry x="330" y="170" width="200" height="30" as="geometry" />
        </mxCell>
        <mxCell id="AzjC7UTh_NYAufaMbPv8-20" value="&lt;span style=&quot;text-align: left; text-wrap: wrap;&quot;&gt;Extension Classloader不会立即加载,而是会先交给&lt;/span&gt;&lt;span style=&quot;text-align: left; text-wrap: wrap;&quot;&gt;Bootstrap Classloader尝试加载&lt;/span&gt;" style="text;html=1;align=center;verticalAlign=middle;resizable=1;points=[];autosize=1;strokeColor=none;fillColor=none;overflow=width;" vertex="1" parent="1">
          <mxGeometry x="720" y="170" width="230" height="30" as="geometry" />
        </mxCell>
        <mxCell id="AzjC7UTh_NYAufaMbPv8-21" value="&lt;span style=&quot;text-wrap: wrap;&quot;&gt;未找到,返回给&lt;/span&gt;&lt;span style=&quot;text-wrap: wrap;&quot;&gt;Extension Classloader尝试加载&lt;/span&gt;" style="text;html=1;align=center;verticalAlign=middle;resizable=1;points=[];autosize=1;strokeColor=none;fillColor=none;overflow=width;" vertex="1" parent="1">
          <mxGeometry x="700" y="238" width="270" height="30" as="geometry" />
        </mxCell>
        <mxCell id="AzjC7UTh_NYAufaMbPv8-22" value="&lt;span style=&quot;text-wrap: wrap;&quot;&gt;未找到,返回给&lt;/span&gt;&lt;span style=&quot;text-wrap: wrap;&quot;&gt;App Classloader&lt;/span&gt;&lt;span style=&quot;text-wrap: wrap;&quot;&gt;尝试加载&lt;/span&gt;" style="text;html=1;align=center;verticalAlign=middle;resizable=1;points=[];autosize=1;strokeColor=none;fillColor=none;overflow=width;" vertex="1" parent="1">
          <mxGeometry x="320" y="238" width="230" height="30" as="geometry" />
        </mxCell>
      </root>
    </mxGraphModel>
  </diagram>
</mxfile>
